<svg xmlns="http://www.w3.org/2000/svg" width="392" height="433" viewBox="0 0 392 433">
  <defs>
    <filter id="a" width="100%" height="100%" x="0%" y="0%" filterUnits="objectBoundingBox">
      <feGaussianBlur in="SourceGraphic"/>
    </filter>
  </defs>
  <g fill="none" fill-rule="evenodd">
    <path fill="#939597" d="M211.28 238.64v-105.9H391.6v105.9H211.3zM0 327.77V226.3h180.33v101.47H0z"/>
    <path fill="#A3CD39" d="M347.27 67.15h-18.52V46.7h-55.9V.43H112.2v42.4L44.68 99v12.07h-.2V279.6c0 94.67 149.1 152.55 149.1 152.55s152.9-56.08 152.9-152.55V120.12l.8-52.97z"/>
    <path fill="#9AC03A" d="M346.5 208v71.6c0 96.47-152.93 152.55-152.93 152.55l-.57-.23V208h153.5z"/>
    <path fill="#FEFEFE" d="M316.82 211.06h-87.7V95.5h16.5V75.04h56.7V95.5h16.2l-1.68 115.56zM140.52 85.5V28.77h104v33.06h-12.1v20.44h-16.5v141.7l-50.7 6.4v-124.3l-24.7-20.57zM152 247.58h-17.7l-7 .9v-.9H73.02v-135.3L112.5 79.4l14.8 12.3 13.2 11 11.5 9.58v135.3zm163.53-165.3V61.8h-57.78V15.5H127.3v59l-14.8-12.3-52.7 43.88V260.8h105.43v-17.12L257.75 232v-7.7h72.1l2.08-142.04h-16.4zm2.63 197.33c0 20.6-11.05 52.7-63.64 88.8-23.6 16.2-47.67 27.5-60.65 33.1-14.82-6.7-42.98-20.8-68.7-40.6C90.43 334 72.8 306.7 72.8 279.7v-55.5h245.4v55.5zM59.6 210.9v68.75c0 73.78 108.6 125.2 134.14 136.25 11.58-4.75 40.14-17.35 68.25-36.6 31.6-21.68 69.3-56.56 69.3-99.64V210.9H59.5z"/>
    <circle cx="196.5" cy="328.5" r="22.5" fill="#A3CD39"/>
    <path fill="#FEFEFE" d="M193.05 342l-13.2-9.7 3.64-4.95 8.5 6.25 14.3-17.33 4.7 3.9L193 342zm2.12-43.32c-16.4 0-29.7 13.3-29.7 29.7s13.3 29.68 29.7 29.68 29.7-13.3 29.7-29.7-13.3-29.68-29.7-29.68z"/>
    <path fill="#000" fill-opacity=".2" d="M346.95 256.4l-292.1 65.54s-2.6-4.6-2.6-6.26v-99.04l294.7-66.13v105.9z" filter="url(#a)"/>
    <path fill="#231F20" d="M391.6 239.37L0 327.43v-105.9l391.6-88.05"/>
    <path fill="#939597" d="M152.13 187.58L0 222.58v-41.2l152.13-35"/>
    <path fill="#FFF" fill-opacity=".6" d="M196.77 166.2l5.67-1.3V49.54h-5.67V166.2zm-18.03 4.12l5.67-1.3V49.54h-5.6v120.78zm100.37-23.7l5.7-1.3v-49.5h-5.6v50.8zm18.1-33.8v29.68l5.7-1.3v-28.37h-5.6zm-36 37.9l5.7-1.28V95.82h-5.6v54.9zm-18 4.13l5.7-1.3v-40.72h-5.6v42.02zm-133.2-9.9h.5l5.2-1.2v-37.1H110v38.3zm19.9-4.45l5.7-1.3v-19.34H130v20.64zM89 149.83l5.67-1.3v-28.67h-5.7v29.97zM214.8 70.8V49.54h5.67V70.8h-5.66zm-54.1 13.7V49.53h5.67v39.2l-5.66-4.25z"/>
    <path fill="#FEF9F9" d="M349.07 204.26v5.06l6.1-1.4V195l-8.5 1.93c-2.8.64-4.82-1.3-4.82-3.8v-16.98c0-2.9 1.93-5.42 4.8-6.08l10.9-2.5c2.74-.62 4.82.98 4.82 3.8v7.2l-7.2 1.66v-4.64l-6.1 1.3v11.9l8.5-2c2.72-.7 4.8 1.2 4.8 3.8v18c0 2.6-2.16 5.4-4.8 6l-10.9 2.5c-2.57.6-4.82-1.2-4.82-3.8v-7.6l7.22-1.7zm-30.94-6.77l5.2-1.2v-13.5l-5.2 1.2v13.4zm6.1 6l-6.1 1.4v18.9l-7.22 1.6v-47.2l14.9-3.4c2.8-.6 4.8 1.2 4.8 3.9v15.1c0 2-1 3.9-2.5 4.6 2.2 0 3.4 2 3.4 4.1v18.1l-7.2 1.6v-18.9zm-22.93 24.2l-18.6 4.2v-47.2l18.02-4.2v7.5l-10.8 2.5v12l7.6-1.8v7.4l-7.6 1.7v12.8l11.36-2.6v7.4zm-36.24-31.5l-6.1 1.4v32.3l6.1-1.4v-32.3zm-13.3-4.5l15.7-3.6c2.73-.6 4.8 1.2 4.8 3.9v37.4c0 2.6-2.15 5.4-4.8 6l-15.7 3.6v-47.3zm-17.64 11.5l-6.1 1.4V237l6.1-1.4v-32.3zm-13.3.5c0-2.7 2.24-5.5 4.8-6.1l10.9-2.5c2.73-.6 4.8 1.2 4.8 3.8v37.4c0 2.6-2.16 5.4-4.8 6l-10.9 2.5c-2.56.6-4.8-1.2-4.8-3.8v-37.4zM203.18 217v-6.64l-6.1 1.4v32.33l6.1-1.4v-6.8l7.2-1.7v9.3c0 2.6-2.16 5.4-4.8 6l-10.9 2.5c-2.57.5-4.8-1.2-4.8-3.8v-37.4c0-2.7 2.23-5.5 4.8-6.1l10.9-2.5c2.72-.7 4.8 1.2 4.8 3.8v9.1l-7.2 1.6zm-49.63-2.75l6.9 20.64v-22.3l7.2-1.7v47.2l-7.44 1.7-8.2-25.2v27l-7.2 1.6V216l8.8-2zm-32.14 39.1l5.7-1.3-2.9-23.63-2.8 24.94zm6.6 5.96l-7.4 1.8-.9 8.3-7.7 1.8 6-48.6 12.9-2.9 5.8 46-7.4 1.7-.9-7.8zm-23.8 13.5l-18.6 4.3v-47.3l18.1-4.1v7.5l-10.9 2.5v12.1l7.7-1.7v7.5l-7.6 1.8V268l11.4-2.6v7.42zm-43.1-37.4l7.2-1.6v39.8l8.5-1.9v7.5l-15.7 3.6v-47.3zm-17.6 18.2V247l-6.1 1.4v32.33l6.1-1.4v-6.7l7.2-1.64v9.3c0 2.6-2.1 5.4-4.8 6L35 288.8c-2.54.56-4.8-1.16-4.8-3.8v-37.4c0-2.66 2.26-5.5 4.8-6.08l10.9-2.5c2.75-.63 4.8 1.22 4.8 3.87v9.1l-7.2 1.6z"/>
    <path fill="#939597" d="M376.95 162.6v7.66l14.66-3.36v-7.68L377 162.6zm0 47.97l14.66-3.36v-7.6L377 203v7.68zm0-20.15l14.66-3.36v-7.68l-14.6 3.36v7.68zM0 248.7v7.66L14.66 253v-7.67L0 248.7zm0 47.97l14.66-3.36v-7.6L0 289v7.67zm0-20.15l14.66-3.36v-7.68L0 268.84v7.68z"/>
    <path fill="#231F20" d="M152.04 324.76c0 .08-.03.15-.08.2-.06.06-.12.08-.2.08h-2.1c-.08 0-.15.03-.2.08-.06.05-.08.1-.08.2v7.28c0 .08-.03.15-.08.2-.05.06-.1.08-.2.08h-2.05c-.08 0-.14-.02-.2-.08-.05-.05-.08-.12-.08-.2v-7.3c0-.07-.02-.13-.07-.18-.05-.05-.12-.08-.2-.08h-2.1c-.07 0-.14-.02-.2-.08-.05-.05-.07-.12-.07-.2v-1.95c0-.1.1-.2.28-.2h7.4c.1 0 .2.1.2.1.1.1.1.2.1.2v2zm-11.1 3.63c.04.1.05.1.05.2v2.2s-.1.1-.1.2l-.1.2-1.4 1.3-.3.1h-6c-.2 0-.3-.1-.3-.3v-2l.2-.1h5.1s.1 0 .2-.1c0-.1.1-.2.1-.2v-1c0-.1-.1-.2-.1-.2-.1-.1-.2-.1-.2-.1H135c-.1 0-.2 0-.3-.1l-.24-.1-1.36-1.4-.1-.3-.03-.2v-2.2s0-.1.04-.2l.1-.3 1.4-1.4.3-.1.3-.1h5.3c.1 0 .2 0 .2.1.1 0 .1.1.1.2v1.8s0 .1-.1.2h-4.9c-.1 0-.1 0-.2.1 0 0-.1.1-.1.2v1.2c0 .1.1.1.1.2.1 0 .1.1.2.1h3.9l1.4 1.4.1.25zm-11.73-5.8c.1 0 .1.1.1.2v1.8c0 .1 0 .1-.1.2h-5.1v1.7h4.6s.1.1.1.2v1.7h-4.4v1.7h5c.1 0 .2 0 .2.1.1 0 .1.1.1.2v1.8l-.1.2H122c-.2 0-.3-.1-.3-.3v-9.8c0-.1.07-.2.1-.2.1-.1.15-.1.2-.1h7.3c.1 0 .2 0 .2.1zm147 2.4v3.6s-.1.1-.2.1h-5c-.1 0-.2.1-.2.2v1.3c.1.1.2.2.3.2h5c.1 0 .2 0 .2.1.1 0 .1.1.1.2v2h-7.5c-.2 0-.3-.1-.3-.3v-4.2c0-.1.1-.2.2-.3l1.4-1.4.3-.1c.1-.1.2-.1.3-.1h3.2c.1 0 .2-.1.2-.1.1-.1.1-.1.1-.2v-1c0-.1 0-.2-.1-.2 0-.1-.1-.1-.2-.1h-5s-.1 0-.2-.1v-2c0-.1 0-.2.1-.2.1-.1.1-.1.2-.1h5.2c.1 0 .2 0 .3.1l.3.1 1.2 1.5c.1.1.1.2.1.3v.3h.1v.3zm-11.5-2.2v9.8c0 .2-.1.2-.3.2h-2c-.2 0-.3-.1-.3-.3v-7.4s-.1 0-.1.1l-.7.5h-.1s-.1-.1-.1-.2v-2.1c0-.1 0-.2.1-.3.1-.1.1-.2.2-.2l.7-.6c.1-.1.2-.1.3-.2s.2-.1.3-.1h2.1c.2 0 .3.1.3.3m-12.4 7.6h2.9v-5h-2.9v5.3zm5.3-6.4l.1.2v6.9l-.1.3-1.3 1.4H252c-.1 0-.2-.1-.26-.1l-1.4-1.4-.1-.3V324c0-.1 0-.18.1-.25l1.3-1.37c.08-.04.1-.07.2-.1l.3-.03h3.9c.1 0 .2 0 .3.07s.2.06.26.1l1.4 1.35zm-11.5 1v3.5s-.1.1-.1.2c-.1 0-.1.1-.2.1h-5c-.1 0-.2 0-.2.2v1.3c.1.1.1.2.3.2h5c.1 0 .1 0 .2.1 0 0 .1.1.1.2v2s-.1.1-.2.1H239c-.2 0-.3-.1-.3-.3V328c0-.05 0-.15.1-.3l1.36-1.37.2-.06c.1-.1.2-.1.3-.1h3.28c.1 0 .2 0 .2-.07.1-.04.1-.1.1-.2v-1c0-.1 0-.14-.1-.2-.1-.04-.1-.07-.2-.07H239c-.1 0-.14-.04-.2-.1-.05-.07-.1-.14-.1-.2v-1.84c0-.1.05-.2.1-.2.06-.1.1-.1.2-.1h5.5l.27.1 1.4 1.3.1.3v.7zM131 165.5c.1.1.12.2.12.3v16.28c0 .12-.03.24-.1.35-.1.1-.2.2-.3.2l-3.25.8-.3.02c-.1 0-.25 0-.4-.07-.1-.03-.2-.1-.27-.2l-5.5-8.8v9.9c0 .3-.2.5-.5.58l-3.4.7c-.3.1-.43-.05-.43-.36V169c0-.3.2-.5.5-.56l3.5-.8c.1-.05.23-.04.4 0 .1.04.2.1.3.2l5.4 8.8v-9.95c0-.1 0-.3.1-.4.1-.1.2-.2.33-.2l3.4-.8c.1 0 .2 0 .3.1m-24.37 9.6l-5.74 1.3v8.8l5.7-1.3V175zm4.18-2.7c.1.1.1.2.2.4 0 .1.1.3.1.4v11.3l-.1.4-2.2 2.8c-.1.1-.3.1-.4.2s-.3.1-.4.1l-.5.1-5.9 1.3-1.3.3-.5.1c-.1 0-.3 0-.4-.1l-2.5-1.6c-.1-.1-.1-.2-.15-.4s-.1-.3-.1-.4V177c0-.12.03-.27.1-.44 0-.17.1-.32.1-.44l2.25-2.78.43-.23.44-.1 1.08-.2 5.15-1.1 1.5-.3h.45c.1 0 .3 0 .4.1l2.2 1.8zm-19 5.6c0 .1 0 .2-.1.3-.1.1-.2.2-.3.2l-3.5.8c-.1 0-.2.1-.3.2-.1.1-.1.2-.1.4V192c0 .1-.1.2-.1.3-.1.1-.2.2-.3.2l-3.4.8c-.1 0-.3 0-.3-.1-.1-.1-.1-.2-.1-.3V181c0-.15 0-.24-.1-.3 0-.07-.2-.1-.3-.06l-3.5.8c-.1.03-.2 0-.3-.06 0-.06-.1-.16-.1-.3V178c0-.3.2-.5.5-.55l3.5-.8.9-.2 3.4-.8.9-.2 3.5-.8c.2-.04.3-.02.4.05.1.08.1.18.1.3v3.25zm-16.8.2c.1.1.1.2 0 .3L69 190.3c-.06.14-.1.3-.15.46-.04.18-.06.33-.06.46v5.45c0 .14-.1.26-.2.37-.1.1-.2.18-.3.2l-3.4.8c-.2.02-.3 0-.4-.07-.1-.07-.2-.17-.2-.3v-5.45c0-.13 0-.27-.1-.43-.1-.2-.1-.3-.2-.4l-5.5-8.8c-.1-.1-.1-.2 0-.3 0-.1.1-.2.2-.2l3.6-.9c.1-.1.3-.1.4 0 .1 0 .2.1.3.2l3.3 5.7 3.3-7.2c0-.2.1-.3.3-.4.1-.1.3-.2.4-.2l3.7-.9c.1-.1.2-.1.2 0m-24.8 9.4l-5.8 1.3v4.3l5.8-1.3V188zm4.1-2.4l.1.4V200c0 .13-.1.24-.1.35-.1.1-.2.2-.3.2l-3.4.8c-.2.02-.3 0-.4-.06-.1-.1-.1-.2-.1-.3v-4.4c0-.2 0-.3-.1-.3-.1-.1-.2-.1-.4-.1l-4.8 1.1c-.2 0-.3.1-.4.2-.1.1-.2.2-.2.3v4.4c0 .1 0 .2-.1.3-.1.1-.2.2-.3.2l-3.5.8c-.1 0-.2 0-.3-.1-.1-.1-.2-.2-.2-.3v-13.4c0-.1.03-.3.1-.4 0-.2.04-.3.1-.4l2.23-2.8.4-.3c.15-.1.3-.2.43-.2l.4-.1 1.4-.4 5-1.2.8-.2.3-.1c.2-.1.3-.1.5-.1h.4l2.3 1.7zm-27.9 8.2l-2.1.5v8.9l2.2-.5 1.2-.3 2.3-.6V193l-2.4.54-1.4.3zm7.8-3.5l.1.3c.1.1.1.3.1.4v11l-.1.4-2.3 2.8c-.1.1-.3.2-.4.2-.2.1-.4.1-.5.1l-1 .2-7.9 1.8-1.7.4c-.3 0-.5-.1-.5-.4v-16.2c0-.2 0-.3.1-.4.1-.1.2-.2.3-.2l1.5-.3 7-1.6 2.1-.5c.1-.1.3-.1.5-.1h.4l2.3 1.72z"/>
  </g>
</svg>
